<svg width="19" height="17" viewBox="0 0 19 17" fill="none" xmlns="http://www.w3.org/2000/svg">
<path d="M2.46191 7.70898C2.46191 7.94824 2.57129 8.13965 2.75586 8.23535V9.08301C2.41406 9.26074 2.22949 9.64355 2.26367 10.1152C2.37305 10.9492 2.98145 12.3574 3.70605 13.499C4.71094 15.1602 5.3125 15.748 5.96875 15.748C6.85059 15.748 7.26758 14.9277 6.77539 14.0596L4.23242 9.55469C4.04102 9.21973 3.76758 9.03516 3.42578 8.99414V8.1875C3.5625 8.0918 3.64453 7.9209 3.64453 7.70898C3.67188 4.07227 5.87305 1.74121 9.40723 1.74121C12.9414 1.74121 15.1357 4.07227 15.1631 7.70898C15.1631 7.9209 15.2451 8.0918 15.3887 8.1875V8.99414C15.0469 9.03516 14.7666 9.21973 14.582 9.55469L12.0322 14.0596C11.54 14.9277 11.9639 15.748 12.8389 15.748C13.4951 15.748 14.0967 15.1602 15.1016 13.499C15.8262 12.3574 16.4346 10.9492 16.5439 10.1152C16.5781 9.64355 16.3936 9.26074 16.0518 9.08301V8.23535C16.2363 8.13965 16.3457 7.94824 16.3457 7.70898C16.3457 3.45703 13.7002 0.551758 9.40723 0.551758C5.10742 0.551758 2.46191 3.45703 2.46191 7.70898ZM5.40137 4.22266C6.50879 3.61426 7.82812 3.31348 9.40723 3.32031C10.9795 3.31348 12.2988 3.61426 13.4062 4.22266C12.5244 3.04688 11.2188 2.43848 9.40723 2.43848C7.58887 2.43848 6.2832 3.04688 5.40137 4.22266ZM10.7266 14.3467C11.0068 14.5039 11.2666 14.4355 11.417 14.1689L14.2334 9.19922C14.3838 8.94629 14.3154 8.67969 14.0352 8.52246C13.5703 8.25586 13.0166 8.44043 12.7158 8.95996L10.4326 12.9932C10.1387 13.5059 10.2686 14.0869 10.7266 14.3467ZM8.08105 14.3467C8.53906 14.0869 8.66895 13.5059 8.375 12.9932L6.0918 8.95996C5.79785 8.44043 5.24414 8.25586 4.7793 8.52246C4.49219 8.67969 4.43066 8.94629 4.57422 9.19922L7.39062 14.1689C7.54102 14.4355 7.80078 14.5039 8.08105 14.3467Z" fill="white" fill-opacity="0.6"/>
</svg>
