<svg width="34" height="32" viewBox="0 0 34 32" fill="none" xmlns="http://www.w3.org/2000/svg">
<path d="M9.75879 8.20801C11.4062 8.20801 12.7461 6.75195 12.7461 4.96094C12.7461 3.2041 11.4131 1.7959 9.75879 1.7959C8.11133 1.7959 6.76465 3.21777 6.76465 4.97461C6.77148 6.75879 8.10449 8.20801 9.75879 8.20801ZM9.75879 7.02539C8.80859 7.02539 8.00879 6.12988 8.00879 4.97461C8.00195 3.84668 8.80176 2.97852 9.75879 2.97852C10.7158 2.97852 11.5088 3.83984 11.5088 4.96094C11.5088 6.11621 10.7158 7.02539 9.75879 7.02539ZM8.22754 14.5654H14.0176C15.1934 14.5654 15.7607 14.1963 15.7607 13.3965C15.7607 11.5234 13.4229 9.00781 9.75195 9.00781C8.5625 9.00781 7.50977 9.28125 6.63477 9.71191C6.96973 9.97852 7.26367 10.2861 7.50293 10.6348C8.13184 10.3613 8.89062 10.1904 9.75195 10.1904C12.7734 10.1904 14.4688 12.1592 14.4688 13.2051C14.4688 13.335 14.4072 13.3828 14.2432 13.3828H8.41895C8.40527 13.8066 8.35742 14.1689 8.22754 14.5654ZM3.93457 16.8008C5.8418 16.8008 7.45508 15.208 7.45508 13.2871C7.45508 11.3594 5.8623 9.7666 3.93457 9.7666C2.00684 9.7666 0.414062 11.3594 0.414062 13.2871C0.414062 15.2148 2.00684 16.8008 3.93457 16.8008ZM3.93457 15.5156C3.6543 15.5156 3.46973 15.3311 3.46973 15.0508V13.752H2.1709C1.89746 13.752 1.70605 13.5674 1.70605 13.2871C1.70605 13.0068 1.89062 12.8223 2.1709 12.8223H3.46973V11.5234C3.46973 11.25 3.6543 11.0586 3.93457 11.0586C4.21484 11.0586 4.39941 11.25 4.39941 11.5234V12.8223H5.69824C5.97168 12.8223 6.16309 13.0068 6.16309 13.2871C6.16309 13.5674 5.97168 13.752 5.69824 13.752H4.39941V15.0508C4.39941 15.3311 4.21484 15.5156 3.93457 15.5156Z" fill="white" fill-opacity="0.6"/>
</svg>
